<?xml version="1.0" encoding="UTF-8"?>
<svg viewBox="0 0 200 150" xmlns="http://www.w3.org/2000/svg">
 <defs>
  <filter id="d">
   <feGaussianBlur stdDeviation="6.9257"/>
  </filter>
  <filter id="k">
   <feGaussianBlur stdDeviation="2.539"/>
  </filter>
  <filter id="j">
   <feGaussianBlur stdDeviation="6.7902"/>
  </filter>
  <filter id="g">
   <feGaussianBlur stdDeviation=".7894"/>
  </filter>
  <filter id="a">
   <feGaussianBlur stdDeviation="6.7201"/>
  </filter>
  <filter id="f" x="-.17055" y="-.11815" width="1.3411" height="1.2363">
   <feGaussianBlur stdDeviation="4.1272"/>
  </filter>
  <filter id="i" x="-.13542" y="-.15165" width="1.2708" height="1.3033">
   <feGaussianBlur stdDeviation="12.1241"/>
  </filter>
  <filter id="h" x="-.2061" y="-.14179" width="1.4122" height="1.2836">
   <feGaussianBlur stdDeviation="3.4176"/>
  </filter>
  <filter id="e" x="-.34506" y="-.27266" width="1.6901" height="1.5453">
   <feGaussianBlur stdDeviation="5.2606"/>
  </filter>
  <filter id="c" x="-.11702" y="-.08138" width="1.234" height="1.1628">
   <feGaussianBlur stdDeviation="1.0893"/>
  </filter>
  <linearGradient id="b" x1="991.57" x2="1549.6" y1="2372.9" y2="2401.4" gradientUnits="userSpaceOnUse">
   <stop stop-color="#5a0100" offset="0"/>
   <stop stop-color="#fff" stop-opacity=".8831" offset="1"/>
  </linearGradient>
 </defs>
 <g transform="matrix(.47372 0 0 .47372 -94.455 -202.48)" fill="#666" filter="url(#a)">
  <path d="m308.98 477.3c-1.6143 0.16949-3.0033 1.6002-3.125 3.2188l-9.3125 121.09c-0.8646-0.92242-2.2535-1.3157-3.4734-0.98363s-2.2177 1.3752-2.4954 2.6086l-7.8438 35.031-4.5701-64.481c-0.078-1.649-1.4757-3.1354-3.1168-3.3144s-3.3265 0.97096-3.7582 2.5644l-9.5861 41.074-66.656 0.6875c-1.8456-4e-3 -3.5238 1.6861-3.5074 3.5316s1.7246 3.5051 3.5698 3.4684l69.281-0.71875c1.5067-0.0123 2.9401-1.1108 3.3438-2.5625l5.5-19.562 4.8201 68.481c0.10297 1.6626 1.5492 3.1372 3.2095 3.2724s3.3261-1.0859 3.6968-2.7099l8.8986-47.387c0.48048 2.9322 1.2139 7.6724 4.6409 7.5585 1.6522-0.10467 3.1188-1.5345 3.2653-3.1835l7.9388-94.788 14.749 193.07c0.12735 1.682 1.6324 3.1483 3.3171 3.2318s3.3274-1.2268 3.6204-2.888l9.5938-56.689 0.0312-0.15625 11.344-37.844c0.0665-0.23436 0.1085-0.47569 0.125-0.71875l0.42735-29.765 6.2365 47.587c0.20311 1.4664 1.434 2.7307 2.8944 2.9729s3.0336-0.55688 3.6993-1.8792l9.7111-24.978 235.31 0.71875c1.8481 0.033 3.5546-1.6358 3.5629-3.4842s-1.6833-3.5324-3.5317-3.5158l-237.5-0.71875c-1.2904 3e-3 -2.5489 0.78286-3.125 1.9375l-6.375 12.75-8.4164-57.187c-0.27145-1.6582-1.8853-2.9861-3.5647-2.9331s-3.2064 1.4799-3.3728 3.1519l-2.8961 54.374-11.312 37.906c-0.0381 0.12315-0.0694 0.2484-0.0937 0.375l-4.8438 26.781-16.438-211.78c-0.13945-1.8691-2.0121-3.4246-3.875-3.2188z" filter="url(#a)"/>
  <path d="m308.98 477.3c-1.6143 0.16949-3.0033 1.6002-3.125 3.2188l-9.3125 121.09c-0.8646-0.92242-2.2535-1.3157-3.4734-0.98363s-2.2177 1.3752-2.4954 2.6086l-7.8438 35.031-4.5701-64.481c-0.078-1.649-1.4757-3.1354-3.1168-3.3144s-3.3265 0.97096-3.7582 2.5644l-9.5861 41.074-66.656 0.6875c-1.8456-4e-3 -3.5238 1.6861-3.5074 3.5316s1.7246 3.5051 3.5698 3.4684l69.281-0.71875c1.5067-0.0123 2.9401-1.1108 3.3438-2.5625l5.5-19.562 4.8201 68.481c0.10297 1.6626 1.5492 3.1372 3.2095 3.2724s3.3261-1.0859 3.6968-2.7099l8.8986-47.387c0.48048 2.9322 1.2139 7.6724 4.6409 7.5585 1.6522-0.10467 3.1188-1.5345 3.2653-3.1835l7.9388-94.788 14.749 193.07c0.12735 1.682 1.6324 3.1483 3.3171 3.2318s3.3274-1.2268 3.6204-2.888l9.5938-56.689 0.0312-0.15625 11.344-37.844c0.0665-0.23436 0.1085-0.47569 0.125-0.71875l0.42735-29.765 6.2365 47.587c0.20311 1.4664 1.434 2.7307 2.8944 2.9729s3.0336-0.55688 3.6993-1.8792l9.7111-24.978 235.31 0.71875c1.8481 0.033 3.5546-1.6358 3.5629-3.4842s-1.6833-3.5324-3.5317-3.5158l-237.5-0.71875c-1.2904 3e-3 -2.5489 0.78286-3.125 1.9375l-6.375 12.75-8.4164-57.187c-0.27145-1.6582-1.8853-2.9861-3.5647-2.9331s-3.2064 1.4799-3.3728 3.1519l-2.8961 54.374-11.312 37.906c-0.0381 0.12315-0.0694 0.2484-0.0937 0.375l-4.8438 26.781-16.438-211.78c-0.13945-1.8691-2.0121-3.4246-3.875-3.2188z"/>
 </g>
 <g transform="matrix(.4508 0 0 .4508 -111.85 -241.47)">
  <path transform="matrix(1.1542 0 .28856 .94371 -284.26 46.954)" d="m428.96 584.35c-6.3158 3.0928-10.214-22.838-43.68-25.312-13.704-1.0132-24.26 5.9907-35.378 15.872s-22.517 26.465-27.609 41.544-6.2382 27.142-3.563 44.325 9.0116 28.414 23.894 55.376 70.059 101.41 70.059 101.41 20.025-33.669 32.202-48.197c24.089-28.572 59.884-49.909 78.853-72.712 8.6921-10.653 13.021-26.299 14.629-41.04 1.7362-15.922-1.1051-34.362-5.7691-47.676-5.4049-15.428-16.594-28.965-28.948-37.354-9.4293-6.403-21.034-9.3624-31.833-8.1098-15.465 1.7938-31.616 14.718-42.856 21.872z" fill="#808080" filter="url(#d)"/>
  <path d="m454.16 577.91c-7.7412 3.1782-12.519-23.469-53.538-26.011-16.797-1.0411-29.735 6.1562-43.363 16.31s-27.598 27.196-33.84 42.692-7.6461 27.891-4.3671 45.549 11.045 29.199 29.287 56.906 85.87 104.21 85.87 104.21 24.544-34.599 39.47-49.528c29.525-29.361 73.398-51.288 96.648-74.721 10.654-10.947 15.96-27.026 17.93-42.174 2.128-16.362-1.3545-35.311-7.0711-48.992-6.6247-15.854-20.34-29.765-35.482-38.386-11.557-6.5799-25.781-9.621-39.017-8.3338-18.955 1.8433-38.751 15.124-52.528 22.476z" fill="#5a0100"/>
  <path d="m394.88 558.28c-12.09 0.71152-22.202 6.4656-33.781 15.094-12.555 9.3552-26.14 26.009-31.75 39.938-5.9218 14.702-7.0904 25.159-3.9688 41.969 3.0388 16.364 10.093 26.81 28.344 54.531 8.6096 13.077 30.14 39.339 49.281 61.875 16.368 19.271 26.894 31.145 30.812 35.594 6.0831-8.4791 22.128-30.563 35.344-43.781a6.4182 6.4182 0 0 1 0 -0.0312c30.645-30.475 74.776-52.698 96.594-74.688 9.1801-9.4654 14.274-24.202 16.125-38.438 1.931-14.848-1.3337-33.13-6.5938-45.719-5.9227-14.174-18.767-27.302-32.781-35.281-10.334-5.8832-23.363-8.6811-35.188-7.5312-16.43 1.5977-35.77 14.09-50.125 21.75a6.4182 6.4182 0 0 1 -0.59375 0.28125c-2.5315 1.0393-5.7731 0.77462-7.9062-0.1875s-3.53-2.2387-4.8438-3.5c-2.6276-2.5226-5.0023-5.3835-8.2812-8.3438-6.5579-5.9205-16.2-12.313-35.344-13.5-1.8804-0.11655-3.6513-0.13085-5.3438-0.0312z" fill="#ab0400" filter="url(#k)" opacity=".84"/>
  <path transform="translate(6.4286 6.4286)" d="m399.16 569.53c-8.6782 0.51074-16.409 4.5706-27.344 12.719-10.54 7.8538-23.311 23.793-27.75 34.812-5.3286 13.229-6.1668 20.11-3.3438 35.312 2.5898 13.946 8.2934 22.408 26.562 50.156 7.6526 11.623 29.384 38.263 48.438 60.688 11.079 13.039 14.147 16.431 20.844 24.094 8.2019-10.858 18.563-23.937 27.656-33.031a18.413 18.413 0 0 1 0.0625 -0.0312c32.678-32.497 77.239-55.238 96.438-74.5l0.0312-0.0312c6.4833-6.684 11.173-19.05 12.812-31.656 1.5629-12.017-1.4056-28.984-5.8125-39.531-4.6187-11.054-15.665-22.695-27.562-29.469-8.0341-4.574-18.975-6.9241-28.156-6.0312-11.71 1.1387-30.222 12.17-45.656 20.406a18.413 18.413 0 0 1 -1.6562 0.78125c-5.4541 2.2393-13.064 1.6145-17.406-0.34375s-6.4838-4.1155-8.2188-5.7812c-3.47-3.3314-5.4031-5.7493-8-8.0938-5.1937-4.6889-11.44-9.4091-28.031-10.438-1.4708-0.0912-2.766-0.0983-3.9062-0.0312z" fill="url(#b)" filter="url(#j)" opacity=".672"/>
  <path d="m563.48 663.72c-9.5595 20.192-39.267 43.01-51.401 43.01s27.484-31.061 27.484-40.615c4.3149-22.365 19.266-39.369 24.334-42.924 5.3085-3.724 5.3643 28.317-0.41664 40.528z" fill="#fff" filter="url(#f)"/>
  <path transform="translate(12.857 -10)" d="m396.16 580.31c-5.9061 0.34758-11.458 2.9875-21.875 10.75-8.2789 6.169-21.38 22.831-24.469 30.5-5.0756 12.601-5.448 15.159-2.75 29.688 2.2433 12.08 6.8047 18.628 25.094 46.406 6.7014 10.178 28.723 37.428 47.656 59.719 6.8056 8.0124 8.898 10.298 12.812 14.781 6.0008-7.7279 12.588-15.669 19.844-23.062a14.471 14.471 0 0 1 1.125 -1.2812c34.148-33.958 79.912-57.979 96.312-74.375 0.36389-0.37504 0.37962-0.3925 0.0312-0.0312l0.0312-0.0312c3.7859-3.9513 8.6282-15.086 10.031-25.875 1.181-9.081-1.5964-26.049-5.0625-34.344-3.3098-7.9212-13.508-19.057-23.344-24.656-5.86-3.3363-15.454-5.3674-22.125-4.7188-6.1316 0.59627-26.354 10.968-41.875 19.25l-0.09365-0.15635a14.471 14.471 0 0 1 -2.5312 1.375c-8.5249 3.5-18.277 2.7185-25.344-0.46875-5.6551-2.5506-9.4172-6.0779-11.094-7.6875-3.7357-3.5865-5.9096-6.2135-7.75-7.875-4.9085-4.4314-6.91-6.9436-21.938-7.875-1.1408-0.0707-2.0368-0.0696-2.6875-0.0312z" fill="#f81000" filter="url(#i)" opacity=".8047"/>
  <path d="m563.48 663.72c-5.8919 13.039-20.696 27.653-32.83 27.653s8.9128-15.704 8.9128-25.258c4.3149-22.365 18.195-28.654 23.262-32.209 5.3085-3.724 4.7481 20.755 0.65479 29.814z" fill="#fff" filter="url(#h)"/>
  <path d="m562.31 638.94c-2.6026 1.6716-5.5162 3.5564-8.5938 6.75-4.1787 4.3363-8.2901 10.705-10.312 21.188-0.21727 3.488-1.8177 6.459-3.625 9.3125-1.9393 3.0619-4.254 5.996-6.0625 8.4688-0.98867 1.3518-1.0857 1.6833-1.5938 2.5938 4.3165-0.53891 9.7185-3.3369 14.688-7.75 5.5233-4.9054 10.428-11.508 13.094-17.406 1.4335-3.1724 2.7237-10.745 2.8438-16.875 0.0505-2.5775-0.17843-4.6242-0.4375-6.2812z" fill="#fff" filter="url(#g)"/>
  <path d="m427.85 577.89c-3.3601 0.0502-6.2688 1.0447-9.0312 2.8438s-5.8796 4.9186-6.0625 9.8125c-0.10505 2.8111 1.3115 5.6819 2.7812 7.25s2.8279 2.3391 3.9375 2.9375c2.2192 1.1968 3.5956 2.1325 3.0312 1.5312 0.79958 0.85191 4.5295 7.4216 7.25 12.406 1.3603 2.4923 2.2296 4.4534 4.4375 6.7812 0.55198 0.58196 1.2009 1.271 2.5938 1.9688s5.6668 26.399 8.139 25.221 2.0786-28.218 2.5485-29.409 0.59652-2.0358 0.6875-2.875c0.90265-8.3253 1.4581-12.578 1.0312-16.844s-2.2728-7.5263-4.25-10.844c-3.2452-5.4448-8.7162-10.906-17.094-10.781z" fill="#fff" filter="url(#e)" opacity=".8438"/>
  <path d="m430.6 585.13c4.3655-0.0652 8.6239 3.5732 10.859 7.3236 3.9839 6.6843 4.0762 6.6003 2.2728 23.234-0.78586 7.2482-8.2341-12.695-13.385-18.183-2.3308-2.4834-7.9559-3.1625-7.8287-6.566 0.12388-3.315 4.7642-5.7589 8.0812-5.8084z" fill="#fff" filter="url(#c)"/>
  <g transform="translate(69.226 117.56)" stroke="#000" stroke-linejoin="round">
   <path d="m308.98 477.3c-1.6143 0.16949-3.0033 1.6002-3.125 3.2188l-9.3125 121.09c-0.8646-0.92242-2.2535-1.3157-3.4734-0.98363s-2.2177 1.3752-2.4954 2.6086l-7.8438 35.031-4.5701-64.481c-0.078-1.649-1.4757-3.1354-3.1168-3.3144s-3.3265 0.97096-3.7582 2.5644l-9.5861 41.074-66.656 0.6875c-1.8456-4e-3 -3.5238 1.6861-3.5074 3.5316s1.7246 3.5051 3.5698 3.4684l69.281-0.71875c1.5067-0.0123 2.9401-1.1108 3.3438-2.5625l5.5-19.562 4.8201 68.481c0.10297 1.6626 1.5492 3.1372 3.2095 3.2724s3.3261-1.0859 3.6968-2.7099l8.8986-47.387c0.48048 2.9322 1.2139 7.6724 4.6409 7.5585 1.6522-0.10467 3.1188-1.5345 3.2653-3.1835l7.9388-94.788 14.749 193.07c0.12735 1.682 1.6324 3.1483 3.3171 3.2318s3.3274-1.2268 3.6204-2.888l9.5938-56.689 0.0312-0.15625 11.344-37.844c0.0665-0.23436 0.1085-0.47569 0.125-0.71875l0.42735-29.765 6.2365 47.587c0.20311 1.4664 1.434 2.7307 2.8944 2.9729s3.0336-0.55688 3.6993-1.8792l9.7111-24.978 235.31 0.71875c1.8481 0.033 3.5546-1.6358 3.5629-3.4842s-1.6833-3.5324-3.5317-3.5158l-237.5-0.71875c-1.2904 3e-3 -2.5489 0.78286-3.125 1.9375l-6.375 12.75-8.4164-57.187c-0.27145-1.6582-1.8853-2.9861-3.5647-2.9331s-3.2064 1.4799-3.3728 3.1519l-2.8961 54.374-11.312 37.906c-0.0381 0.12315-0.0694 0.2484-0.0937 0.375l-4.8438 26.781-16.438-211.78c-0.13945-1.8691-2.0121-3.4246-3.875-3.2188z" filter="url(#a)" stroke-width="2"/>
   <path d="m308.98 477.3c-1.6143 0.16949-3.0033 1.6002-3.125 3.2188l-9.3125 121.09c-0.8646-0.92242-2.2535-1.3157-3.4734-0.98363s-2.2177 1.3752-2.4954 2.6086l-7.8438 35.031-4.5701-64.481c-0.078-1.649-1.4757-3.1354-3.1168-3.3144s-3.3265 0.97096-3.7582 2.5644l-9.5861 41.074-66.656 0.6875c-1.8456-4e-3 -3.5238 1.6861-3.5074 3.5316s1.7246 3.5051 3.5698 3.4684l69.281-0.71875c1.5067-0.0123 2.9401-1.1108 3.3438-2.5625l5.5-19.562 4.8201 68.481c0.10297 1.6626 1.5492 3.1372 3.2095 3.2724s3.3261-1.0859 3.6968-2.7099l8.8986-47.387c0.48048 2.9322 1.2139 7.6724 4.6409 7.5585 1.6522-0.10467 3.1188-1.5345 3.2653-3.1835l7.9388-94.788 14.749 193.07c0.12735 1.682 1.6324 3.1483 3.3171 3.2318s3.3274-1.2268 3.6204-2.888l9.5938-56.689 0.0312-0.15625 11.344-37.844c0.0665-0.23436 0.1085-0.47569 0.125-0.71875l0.42735-29.765 6.2365 47.587c0.20311 1.4664 1.434 2.7307 2.8944 2.9729s3.0336-0.55688 3.6993-1.8792l9.7111-24.978 235.31 0.71875c1.8481 0.033 3.5546-1.6358 3.5629-3.4842s-1.6833-3.5324-3.5317-3.5158l-237.5-0.71875c-1.2904 3e-3 -2.5489 0.78286-3.125 1.9375l-6.375 12.75-8.4164-57.187c-0.27145-1.6582-1.8853-2.9861-3.5647-2.9331s-3.2064 1.4799-3.3728 3.1519l-2.8961 54.374-11.312 37.906c-0.0381 0.12315-0.0694 0.2484-0.0937 0.375l-4.8438 26.781-16.438-211.78c-0.13945-1.8691-2.0121-3.4246-3.875-3.2188z" fill="#fff" stroke-width="3.5"/>
  </g>
 </g>
</svg>
